<svg width="180" height="51" viewBox="0 0 180 51" fill="none" xmlns="http://www.w3.org/2000/svg">
<rect x="0.5" y="0.5" width="179" height="49.9158" rx="9.5" fill="#090914" stroke="url(#paint0_linear_512_5121)"/>
<path d="M69.9289 37.1452L68.2838 33.4403H61.5749L59.9725 37.1452H57.7291L63.7542 23.8786H66.1686L72.1937 37.1452H69.9289ZM64.908 25.7872L62.3227 31.7375H67.536L64.908 25.7872ZM76.0049 40.7004H74.0179V28.1448H75.9622V29.5482C76.2613 29.0742 76.71 28.6875 77.3082 28.3881C77.9065 28.0887 78.6044 27.939 79.402 27.939C80.8834 27.939 82.0371 28.3819 82.8633 29.2675C83.7037 30.1532 84.1239 31.2759 84.1239 32.6356C84.1239 34.0078 83.6894 35.143 82.8206 36.0412C81.9659 36.9393 80.8051 37.3884 79.3379 37.3884C78.583 37.3884 77.9136 37.2512 77.3296 36.9768C76.7456 36.7023 76.304 36.353 76.0049 35.9289V40.7004ZM82.0728 32.6356C82.0728 31.725 81.795 30.9765 81.2395 30.3902C80.6982 29.7915 79.9647 29.4921 79.0388 29.4921C78.1272 29.4921 77.3866 29.7915 76.8168 30.3902C76.2613 30.9765 75.9835 31.725 75.9835 32.6356C75.9835 33.5712 76.2613 34.3384 76.8168 34.9372C77.3866 35.5235 78.1272 35.8166 79.0388 35.8166C79.9504 35.8166 80.684 35.5235 81.2395 34.9372C81.795 34.3384 82.0728 33.5712 82.0728 32.6356ZM88.67 40.7004H86.6829V28.1448H88.6272V29.5482C88.9263 29.0742 89.375 28.6875 89.9733 28.3881C90.5715 28.0887 91.2694 27.939 92.0671 27.939C93.5484 27.939 94.7022 28.3819 95.5283 29.2675C96.3687 30.1532 96.7889 31.2759 96.7889 32.6356C96.7889 34.0078 96.3545 35.143 95.4856 36.0412C94.631 36.9393 93.4701 37.3884 92.003 37.3884C91.2481 37.3884 90.5786 37.2512 89.9946 36.9768C89.4106 36.7023 88.9691 36.353 88.67 35.9289V40.7004ZM94.7378 32.6356C94.7378 31.725 94.46 30.9765 93.9045 30.3902C93.3633 29.7915 92.6297 29.4921 91.7039 29.4921C90.7923 29.4921 90.0516 29.7915 89.4818 30.3902C88.9263 30.9765 88.6486 31.725 88.6486 32.6356C88.6486 33.5712 88.9263 34.3384 89.4818 34.9372C90.0516 35.5235 90.7923 35.8166 91.7039 35.8166C92.6155 35.8166 93.349 35.5235 93.9045 34.9372C94.46 34.3384 94.7378 33.5712 94.7378 32.6356ZM114.561 26.8912L112.681 27.4712C112.581 26.8974 112.26 26.3797 111.719 25.9182C111.178 25.4441 110.43 25.2071 109.476 25.2071C108.635 25.2071 107.937 25.4192 107.382 25.8433C106.826 26.2674 106.548 26.7914 106.548 27.4151C106.548 27.9016 106.712 28.3132 107.04 28.6501C107.382 28.9869 107.866 29.2176 108.493 29.3424L110.758 29.7728C112.011 30.0098 112.98 30.4589 113.663 31.12C114.347 31.7687 114.689 32.5608 114.689 33.4964C114.689 34.5692 114.205 35.4923 113.236 36.2657C112.268 37.0391 111.007 37.4258 109.454 37.4258C107.759 37.4258 106.427 37.0391 105.458 36.2657C104.504 35.4798 103.949 34.5505 103.792 33.4777L105.8 32.9163C105.886 33.7147 106.242 34.3883 106.869 34.9372C107.496 35.4861 108.35 35.7605 109.433 35.7605C110.43 35.7605 111.199 35.5609 111.74 35.1617C112.282 34.7625 112.552 34.2573 112.552 33.6461C112.552 33.1471 112.36 32.7167 111.976 32.355C111.591 31.9807 111.028 31.725 110.288 31.5878L108.13 31.1761C107.004 30.9641 106.107 30.5462 105.437 29.9225C104.768 29.2987 104.433 28.5066 104.433 27.5461C104.433 26.4982 104.917 25.5813 105.886 24.7954C106.869 23.9971 108.051 23.5979 109.433 23.5979C110.986 23.5979 112.175 23.9285 113.001 24.5896C113.827 25.2508 114.347 26.0179 114.561 26.8912ZM119.838 25.3007V28.1448H122.06V29.7353H119.838V34.4133C119.838 34.8374 119.945 35.1493 120.159 35.3488C120.386 35.5484 120.757 35.6482 121.27 35.6482C121.569 35.6482 121.832 35.6233 122.06 35.5734V37.0703C121.718 37.1826 121.262 37.2387 120.693 37.2387C119.81 37.2387 119.112 37.0142 118.599 36.5651C118.086 36.116 117.83 35.4861 117.83 34.6752V29.7353H115.864V28.1448H116.42C116.947 28.1448 117.338 28.0201 117.595 27.7706C117.865 27.5086 118.001 27.1718 118.001 26.7602V25.3007H119.838ZM126.751 35.012C127.378 35.5734 128.14 35.8541 129.038 35.8541C129.935 35.8541 130.69 35.5734 131.302 35.012C131.929 34.4382 132.242 33.6461 132.242 32.6356C132.242 31.6377 131.929 30.858 131.302 30.2967C130.69 29.7229 129.935 29.436 129.038 29.436C128.14 29.436 127.378 29.7229 126.751 30.2967C126.139 30.858 125.833 31.6377 125.833 32.6356C125.833 33.6461 126.139 34.4382 126.751 35.012ZM125.256 29.2301C126.253 28.3195 127.513 27.8642 129.038 27.8642C130.562 27.8642 131.815 28.3195 132.798 29.2301C133.795 30.1283 134.293 31.2635 134.293 32.6356C134.293 34.0203 133.802 35.168 132.819 36.0786C131.836 36.9768 130.576 37.4258 129.038 37.4258C127.499 37.4258 126.239 36.9768 125.256 36.0786C124.273 35.168 123.782 34.0203 123.782 32.6356C123.782 31.2635 124.273 30.1283 125.256 29.2301ZM142.568 28.0513V29.9225C142.269 29.885 141.977 29.8663 141.692 29.8663C139.812 29.8663 138.872 30.7894 138.872 32.6356V37.1452H136.863V28.1448H138.829V29.7166C139.456 28.569 140.481 27.9952 141.906 27.9952C142.134 27.9952 142.354 28.0139 142.568 28.0513ZM145.907 31.7188H151.526C151.498 31.0452 151.242 30.4963 150.757 30.0721C150.273 29.6355 149.589 29.4172 148.706 29.4172C147.908 29.4172 147.253 29.648 146.74 30.1096C146.228 30.5587 145.95 31.0951 145.907 31.7188ZM151.826 34.0577L153.556 34.5817C153.257 35.4175 152.702 36.1036 151.89 36.64C151.078 37.1639 150.095 37.4258 148.941 37.4258C147.503 37.4258 146.278 36.9955 145.266 36.1347C144.269 35.2615 143.771 34.0889 143.771 32.6169C143.771 31.2447 144.255 30.1096 145.224 29.2114C146.192 28.3132 147.346 27.8642 148.685 27.8642C150.237 27.8642 151.448 28.2945 152.317 29.1553C153.186 30.0035 153.62 31.145 153.62 32.5795C153.62 32.8041 153.606 32.9912 153.578 33.1409H145.843C145.857 33.9392 146.157 34.5941 146.74 35.1056C147.339 35.617 148.072 35.8728 148.941 35.8728C150.408 35.8728 151.37 35.2678 151.826 34.0577Z" fill="white"/>
<path opacity="0.6" d="M59.2978 15.7388V12.5097H60.2013C61.1455 12.5097 61.9268 13.0301 61.9268 14.1278C61.9268 15.2256 61.1373 15.7388 60.1932 15.7388H59.2978ZM60.2339 16.6513C61.878 16.6513 63.0908 15.7246 63.0908 14.1278C63.0908 12.5311 61.8861 11.5973 60.242 11.5973H58.1746V16.6513H60.2339ZM65.904 14.1207C65.904 12.9802 66.8156 12.4384 67.7028 12.4384C68.5981 12.4384 69.5097 12.9802 69.5097 14.1207C69.5097 15.2612 68.5981 15.803 67.7028 15.803C66.8156 15.803 65.904 15.2612 65.904 14.1207ZM64.7401 14.1278C64.7401 15.7531 66.14 16.7582 67.7028 16.7582C69.2737 16.7582 70.6736 15.7531 70.6736 14.1278C70.6736 12.4955 69.2737 11.4904 67.7028 11.4904C66.14 11.4904 64.7401 12.4955 64.7401 14.1278ZM77.8867 15.0902L76.6007 11.5973H75.4368L74.1589 15.0759L73.1008 11.5973H71.9124L73.5159 16.6513H74.6879L76.0065 13.0515L77.3251 16.6513H78.4808L80.0762 11.5973H78.9285L77.8867 15.0902ZM86.7775 16.6513V11.5973H85.6543V14.9405L83.2532 11.5973H81.8533V16.6513H82.9765V13.0657L85.5973 16.6513H86.7775ZM92.8056 16.6513V15.7103H90.2336V11.5973H89.1104V16.6513H92.8056ZM95.3135 14.1207C95.3135 12.9802 96.2251 12.4384 97.1123 12.4384C98.0076 12.4384 98.9192 12.9802 98.9192 14.1207C98.9192 15.2612 98.0076 15.803 97.1123 15.803C96.2251 15.803 95.3135 15.2612 95.3135 14.1207ZM94.1496 14.1278C94.1496 15.7531 95.5496 16.7582 97.1123 16.7582C98.6832 16.7582 100.083 15.7531 100.083 14.1278C100.083 12.4955 98.6832 11.4904 97.1123 11.4904C95.5496 11.4904 94.1496 12.4955 94.1496 14.1278ZM105.711 16.6513H106.932L104.734 11.5973H103.432L101.218 16.6513H102.407L102.887 15.4965H105.231L105.711 16.6513ZM104.059 12.6879L104.857 14.5983H103.261L104.059 12.6879ZM109.81 15.7388V12.5097H110.714C111.658 12.5097 112.439 13.0301 112.439 14.1278C112.439 15.2256 111.65 15.7388 110.706 15.7388H109.81ZM110.746 16.6513C112.39 16.6513 113.603 15.7246 113.603 14.1278C113.603 12.5311 112.399 11.5973 110.754 11.5973H108.687V16.6513H110.746ZM119.445 14.1207C119.445 12.9802 120.357 12.4384 121.244 12.4384C122.139 12.4384 123.051 12.9802 123.051 14.1207C123.051 15.2612 122.139 15.803 121.244 15.803C120.357 15.803 119.445 15.2612 119.445 14.1207ZM118.281 14.1278C118.281 15.7531 119.681 16.7582 121.244 16.7582C122.815 16.7582 124.215 15.7531 124.215 14.1278C124.215 12.4955 122.815 11.4904 121.244 11.4904C119.681 11.4904 118.281 12.4955 118.281 14.1278ZM131.13 16.6513V11.5973H130.007V14.9405L127.606 11.5973H126.206V16.6513H127.329V13.0657L129.95 16.6513H131.13ZM140.741 12.5311V11.5973H135.963V12.5311H137.786V16.6513H138.917V12.5311H140.741ZM147.318 16.6513V11.5973H146.187V13.6289H143.672V11.5973H142.549V16.6513H143.672V14.5555H146.187V16.6513H147.318ZM153.268 16.6513V15.7246H150.777V14.5555H153.032V13.6788H150.777V12.524H153.268V11.5973H149.654V16.6513H153.268Z" fill="white"/>
<path d="M44.1606 31.8142C43.4999 33.0956 43.1845 33.6675 42.3337 34.7997C41.1484 36.3807 39.476 38.3499 37.4036 38.3666C35.5628 38.3816 35.0897 37.3174 32.5907 37.3302C30.0917 37.343 29.5709 38.3855 27.73 38.3705C25.6576 38.3543 24.0743 36.5761 22.8877 34.994C19.5709 30.5722 19.2244 25.3837 21.27 22.6254C22.7237 20.6639 25.018 19.5179 27.1743 19.5179C29.3699 19.5179 30.7505 20.5721 32.5665 20.5721C34.3279 20.5721 35.4006 19.5162 37.9397 19.5162C39.8588 19.5162 41.8923 20.4312 43.3416 22.0122C38.5934 24.2905 39.3654 30.2264 44.1606 31.8142Z" fill="white"/>
<path d="M36.2812 16.7492C37.2038 15.7122 37.9033 14.2493 37.649 12.7529C36.142 12.8432 34.3805 13.683 33.3517 14.7773C32.4176 15.7702 31.6462 17.2432 31.9464 18.6749C33.5902 18.7201 35.2924 17.8596 36.2812 16.7492Z" fill="white"/>
<defs>
<linearGradient id="paint0_linear_512_5121" x1="0" y1="0" x2="163.295" y2="83.561" gradientUnits="userSpaceOnUse">
<stop stop-color="#6DDCFF"/>
<stop offset="1" stop-color="#7F60F9"/>
</linearGradient>
</defs>
</svg>
