<svg width="70" height="70" viewBox="0 0 70 70" fill="none" xmlns="http://www.w3.org/2000/svg">
<path fill-rule="evenodd" clip-rule="evenodd" d="M45.3333 55.6667C45.3333 61.3736 49.9597 66 55.6667 66C61.3736 66 66 61.3736 66 55.6667C66 49.9597 61.3736 45.3333 55.6667 45.3333H14.3333C8.62639 45.3333 4 49.9597 4 55.6667C4 61.3736 8.62639 66 14.3333 66C20.0403 66 24.6667 61.3736 24.6667 55.7025V14.3333C24.6667 8.62639 20.0403 4 14.3333 4C8.62639 4 4 8.62639 4 14.3333C4 20.0403 8.62639 24.6667 14.3333 24.6667H55.6667C61.3736 24.6667 66 20.0403 66 14.3333C66 8.62639 61.3736 4 55.6667 4C49.9597 4 45.3333 8.62639 45.3333 14.3333V55.6667Z" stroke="white" stroke-width="7"/>
</svg>
