<svg width="65" height="51" viewBox="0 0 65 51" fill="none" xmlns="http://www.w3.org/2000/svg">
<path d="M57.0805 21.7928C56.5626 21.3913 55.9336 21.1332 55.2653 21.0477C54.597 20.9622 53.9163 21.0529 53.3008 21.3094L41.8486 26.0381L35.1946 14.8995C34.8765 14.3795 34.4157 13.947 33.8591 13.6461C33.3025 13.3453 32.67 13.1868 32.026 13.1868C31.3819 13.1868 30.7494 13.3453 30.1928 13.6461C29.6362 13.947 29.1754 14.3795 28.8574 14.8995L22.2033 26.0381L10.7511 21.3094C10.1344 21.0533 9.45282 20.9625 8.78342 21.0472C8.11401 21.132 7.48349 21.389 6.96314 21.7891C6.44278 22.1892 6.05333 22.7165 5.83883 23.3114C5.62432 23.9062 5.59331 24.545 5.7493 25.1554L11.498 47.9159C11.608 48.3565 11.8131 48.7719 12.101 49.1367C12.3888 49.5016 12.7535 49.8084 13.1729 50.0385C13.7406 50.3541 14.3897 50.5211 15.0514 50.5219C15.373 50.5213 15.693 50.4789 16.002 50.3958C26.4805 47.7057 37.5488 47.7057 48.0274 50.3958C48.9841 50.6294 50.0016 50.5009 50.8565 50.0385C51.2784 49.8113 51.645 49.5054 51.9333 49.1401C52.2215 48.7747 52.4251 48.3579 52.5313 47.9159L58.3026 25.1554C58.4569 24.5448 58.4242 23.9064 58.2082 23.3122C57.9922 22.718 57.6016 22.1917 57.0805 21.7928Z" fill="#FFAA00"/>
<circle cx="32.0249" cy="7.53527" r="7.53527" fill="#FFAA00"/>
<circle cx="32.0249" cy="33.9087" r="5.65145" fill="#BE9502"/>
<circle cx="59.3402" cy="19.7801" r="4.70954" fill="#FFAA00"/>
<circle cx="4.70954" cy="19.7801" r="4.70954" fill="#FFAA00"/>
<circle cx="17.8963" cy="36.7344" r="2.82573" fill="#BE9502"/>
<circle cx="46.1535" cy="36.7344" r="2.82573" fill="#BE9502"/>
</svg>
