<svg width="26" height="29" viewBox="0 0 26 29" fill="none" xmlns="http://www.w3.org/2000/svg">
<ellipse cx="13.2006" cy="14.8574" rx="12.6" ry="14" fill="#973EFF"/>
<path d="M13.2013 9.30463C14.8291 9.30463 15.0219 9.3114 15.6649 9.34398C16.0516 9.34924 16.4346 9.42813 16.7972 9.57721C17.0602 9.6899 17.299 9.86253 17.4983 10.084C17.6976 10.3054 17.853 10.5708 17.9544 10.863C18.0886 11.266 18.1596 11.6915 18.1643 12.1211C18.1934 12.8356 18.1997 13.0498 18.1997 14.8585C18.1997 16.6672 18.1937 16.8814 18.1643 17.5959C18.1596 18.0255 18.0886 18.451 17.9544 18.854C17.853 19.1462 17.6976 19.4116 17.4983 19.633C17.299 19.8545 17.0602 20.0271 16.7972 20.1398C16.4346 20.2889 16.0516 20.3678 15.6649 20.373C15.0222 20.4053 14.8294 20.4124 13.2013 20.4124C11.5731 20.4124 11.3804 20.4056 10.7376 20.373C10.3509 20.3678 9.96798 20.2889 9.60533 20.1398C9.34235 20.0271 9.10351 19.8545 8.9042 19.633C8.70489 19.4116 8.54953 19.1462 8.4481 18.854C8.31393 18.451 8.24293 18.0255 8.2382 17.5959C8.20917 16.8814 8.20278 16.6672 8.20278 14.8585C8.20278 13.0498 8.20888 12.8356 8.2382 12.1211C8.24293 11.6915 8.31393 11.266 8.4481 10.863C8.54953 10.5708 8.70489 10.3054 8.9042 10.084C9.10351 9.86253 9.34235 9.6899 9.60533 9.57721C9.96798 9.42813 10.3509 9.34924 10.7376 9.34398C11.3807 9.31173 11.5734 9.30463 13.2013 9.30463V9.30463ZM13.2013 8.08398C11.5464 8.08398 11.338 8.09173 10.6877 8.12463C10.1816 8.13581 9.68099 8.24227 9.20701 8.43947C8.80041 8.60968 8.43214 8.87642 8.12788 9.22108C7.81741 9.55927 7.57714 9.96869 7.42385 10.4208C7.24637 10.9474 7.15056 11.5037 7.14049 12.0659C7.11146 12.7879 7.10449 13.0195 7.10449 14.8582C7.10449 16.6969 7.11146 16.9285 7.14107 17.6511C7.15114 18.2133 7.24695 18.7696 7.42443 19.2962C7.57755 19.7482 7.81762 20.1577 8.12788 20.4959C8.4323 20.8407 8.80078 21.1074 9.20759 21.2775C9.68157 21.4747 10.1822 21.5812 10.6882 21.5924C11.3386 21.6246 11.5461 21.633 13.2018 21.633C14.8576 21.633 15.0651 21.6253 15.7155 21.5924C16.2215 21.5812 16.7221 21.4747 17.1961 21.2775C17.601 21.1032 17.9686 20.8368 18.2756 20.4955C18.5825 20.1543 18.822 19.7456 18.9787 19.2956C19.1562 18.769 19.252 18.2127 19.262 17.6504C19.2911 16.9285 19.298 16.6969 19.298 14.8582C19.298 13.0195 19.2911 12.7879 19.2615 12.0653C19.2514 11.503 19.1556 10.9468 18.9781 10.4201C18.825 9.96811 18.5849 9.55868 18.2747 9.22044C17.9702 8.8757 17.6017 8.60895 17.1949 8.43882C16.721 8.24162 16.2203 8.13517 15.7143 8.12398C15.0646 8.09173 14.8561 8.08398 13.2013 8.08398Z" fill="white"/>
<path d="M13.2021 11.3809C12.5829 11.3809 11.9776 11.5849 11.4627 11.9671C10.9479 12.3494 10.5466 12.8927 10.3096 13.5283C10.0726 14.164 10.0106 14.8634 10.1314 15.5382C10.2523 16.213 10.5504 16.8329 10.9883 17.3194C11.4261 17.8059 11.984 18.1372 12.5913 18.2714C13.1987 18.4057 13.8282 18.3368 14.4002 18.0735C14.9723 17.8102 15.4613 17.3643 15.8053 16.7922C16.1493 16.2202 16.333 15.5476 16.333 14.8596C16.333 13.937 16.0031 13.0521 15.416 12.3998C14.8288 11.7474 14.0325 11.3809 13.2021 11.3809ZM13.2021 17.1176C12.8002 17.1176 12.4073 16.9852 12.0731 16.7371C11.7389 16.489 11.4784 16.1363 11.3246 15.7237C11.1708 15.3111 11.1305 14.8571 11.2089 14.419C11.2873 13.981 11.4809 13.5787 11.7651 13.2629C12.0493 12.9471 12.4114 12.732 12.8057 12.6449C13.1999 12.5578 13.6085 12.6025 13.9798 12.7734C14.3512 12.9443 14.6686 13.2337 14.8919 13.6051C15.1152 13.9764 15.2344 14.413 15.2344 14.8596C15.2344 15.4584 15.0203 16.0328 14.6392 16.4563C14.258 16.8797 13.7411 17.1176 13.2021 17.1176V17.1176Z" fill="white"/>
<path d="M16.4562 12.0555C16.8603 12.0555 17.1878 11.6915 17.1878 11.2426C17.1878 10.7936 16.8603 10.4297 16.4562 10.4297C16.0522 10.4297 15.7246 10.7936 15.7246 11.2426C15.7246 11.6915 16.0522 12.0555 16.4562 12.0555Z" fill="white"/>
</svg>
