<svg width="16" height="17" viewBox="0 0 16 17" fill="none" xmlns="http://www.w3.org/2000/svg">
<path d="M0.545833 7.56657H2.16667C2.60869 7.56657 3.03262 7.74216 3.34518 8.05472C3.65774 8.36729 3.83333 8.79121 3.83333 9.23324V10.0666C3.83333 10.5086 4.00893 10.9325 4.32149 11.2451C4.63405 11.5576 5.05797 11.7332 5.5 11.7332C5.94203 11.7332 6.36595 11.9088 6.67851 12.2214C6.99107 12.534 7.16667 12.9579 7.16667 13.3999V15.8541M4.66667 1.67907V2.98324C4.66667 3.53577 4.88616 4.06567 5.27686 4.45637C5.66756 4.84708 6.19747 5.06657 6.75 5.06657H7.16667C7.60869 5.06657 8.03262 5.24216 8.34518 5.55472C8.65774 5.86729 8.83333 6.29121 8.83333 6.73324C8.83333 7.17526 9.00893 7.59919 9.32149 7.91175C9.63405 8.22431 10.058 8.3999 10.5 8.3999C10.942 8.3999 11.366 8.22431 11.6785 7.91175C11.9911 7.59919 12.1667 7.17526 12.1667 6.73324C12.1667 6.29121 12.3423 5.86729 12.6548 5.55472C12.9674 5.24216 13.3913 5.06657 13.8333 5.06657H14.72M10.5 15.4732V13.3999C10.5 12.9579 10.6756 12.534 10.9882 12.2214C11.3007 11.9088 11.7246 11.7332 12.1667 11.7332H14.72M15.5 8.3999C15.5 9.38482 15.306 10.3601 14.9291 11.27C14.5522 12.18 13.9997 13.0068 13.3033 13.7032C12.6069 14.3996 11.7801 14.9521 10.8701 15.329C9.96018 15.7059 8.98491 15.8999 8 15.8999C7.01509 15.8999 6.03982 15.7059 5.12987 15.329C4.21993 14.9521 3.39314 14.3996 2.6967 13.7032C2.00026 13.0068 1.44781 12.18 1.0709 11.27C0.693993 10.3601 0.5 9.38482 0.5 8.3999C0.5 6.41078 1.29018 4.50312 2.6967 3.0966C4.10322 1.69008 6.01088 0.899902 8 0.899902C9.98912 0.899902 11.8968 1.69008 13.3033 3.0966C14.7098 4.50312 15.5 6.41078 15.5 8.3999Z" stroke="#974EBC" stroke-linecap="round" stroke-linejoin="round"/>
</svg>
