<svg width="25" height="37" viewBox="0 0 25 37" fill="none" xmlns="http://www.w3.org/2000/svg">
<path d="M0.922 35.145V32.972H16.186C18.5887 32.972 19.79 31.7707 19.79 29.368V23.432C19.79 21.0293 18.5887 19.828 16.186 19.828H4.844V15.8H16.186C18.5887 15.8 19.79 14.5987 19.79 12.196V8.062C19.79 5.65933 18.5887 4.458 16.186 4.458H1.452V2.285L3.837 0.429997H16.133C21.539 0.429997 24.242 3.133 24.242 8.539V12.408C24.242 13.8213 23.8003 14.9697 22.917 15.853L21.062 17.708L22.917 19.563C23.8003 20.4463 24.242 21.5947 24.242 23.008V28.891C24.242 34.297 21.539 37 16.133 37H3.307L0.922 35.145Z" fill="url(#paint0_linear_1374_7591)"/>
<defs>
<linearGradient id="paint0_linear_1374_7591" x1="12.5" y1="1.1125" x2="12.5" y2="38.725" gradientUnits="userSpaceOnUse">
<stop stop-color="white"/>
<stop offset="0.906431" stop-color="white" stop-opacity="0"/>
</linearGradient>
</defs>
</svg>
