<svg width="180" height="52" viewBox="0 0 180 52" fill="none" xmlns="http://www.w3.org/2000/svg">
<rect x="0.5" y="1.41583" width="179" height="49.9158" rx="9.5" fill="#090914" stroke="url(#paint0_linear_512_5127)"/>
<path d="M70.2035 38.061H68.6237L68.4437 36.1898C68.0971 36.7761 67.5305 37.2813 66.7439 37.7055C65.9574 38.1296 65.0108 38.3416 63.9043 38.3416C62.6912 38.3416 61.5713 38.0859 60.5448 37.5745C59.5183 37.0505 58.6717 36.2522 58.0051 35.1794C57.3519 34.1066 57.0253 32.8529 57.0253 31.4183C57.0253 29.9838 57.3719 28.7301 58.0651 27.6573C58.7584 26.5845 59.6249 25.7923 60.6648 25.2809C61.718 24.7694 62.8445 24.5137 64.0443 24.5137C65.5641 24.5137 66.8839 24.8817 68.0038 25.6177C69.137 26.3412 69.9102 27.308 70.3235 28.518L68.5437 29.2291C68.2237 28.2685 67.6638 27.5263 66.8639 27.0024C66.0774 26.466 65.1375 26.1978 64.0443 26.1978C62.6712 26.1978 61.4913 26.6531 60.5048 27.5637C59.5183 28.4743 59.025 29.7592 59.025 31.4183C59.025 33.0899 59.5049 34.3872 60.4648 35.3104C61.438 36.221 62.6045 36.6763 63.9643 36.6763C64.7109 36.6763 65.3708 36.564 65.9441 36.3395C66.5306 36.115 66.9839 35.8218 67.3039 35.46C67.6372 35.0858 67.8838 34.7116 68.0438 34.3373C68.2171 33.9631 68.3171 33.5889 68.3437 33.2146H63.4244V31.568H70.2035V38.061ZM74.9958 35.9278C75.5824 36.4892 76.2956 36.7699 77.1355 36.7699C77.9754 36.7699 78.6819 36.4892 79.2552 35.9278C79.8418 35.354 80.1351 34.5619 80.1351 33.5515C80.1351 32.5535 79.8418 31.7738 79.2552 31.2125C78.6819 30.6387 77.9754 30.3518 77.1355 30.3518C76.2956 30.3518 75.5824 30.6387 74.9958 31.2125C74.4225 31.7738 74.1359 32.5535 74.1359 33.5515C74.1359 34.5619 74.4225 35.354 74.9958 35.9278ZM73.596 30.1459C74.5292 29.2353 75.709 28.78 77.1355 28.78C78.562 28.78 79.7351 29.2353 80.655 30.1459C81.5882 31.0441 82.0548 32.1793 82.0548 33.5515C82.0548 34.9361 81.5949 36.0838 80.675 36.9944C79.7551 37.8926 78.5753 38.3416 77.1355 38.3416C75.6957 38.3416 74.5158 37.8926 73.596 36.9944C72.6761 36.0838 72.2162 34.9361 72.2162 33.5515C72.2162 32.1793 72.6761 31.0441 73.596 30.1459ZM86.4396 35.9278C87.0261 36.4892 87.7394 36.7699 88.5793 36.7699C89.4192 36.7699 90.1257 36.4892 90.699 35.9278C91.2856 35.354 91.5789 34.5619 91.5789 33.5515C91.5789 32.5535 91.2856 31.7738 90.699 31.2125C90.1257 30.6387 89.4192 30.3518 88.5793 30.3518C87.7394 30.3518 87.0261 30.6387 86.4396 31.2125C85.8663 31.7738 85.5797 32.5535 85.5797 33.5515C85.5797 34.5619 85.8663 35.354 86.4396 35.9278ZM85.0397 30.1459C85.973 29.2353 87.1528 28.78 88.5793 28.78C90.0057 28.78 91.1789 29.2353 92.0988 30.1459C93.032 31.0441 93.4986 32.1793 93.4986 33.5515C93.4986 34.9361 93.0387 36.0838 92.1188 36.9944C91.1989 37.8926 90.0191 38.3416 88.5793 38.3416C87.1395 38.3416 85.9596 37.8926 85.0397 36.9944C84.1199 36.0838 83.6599 34.9361 83.6599 33.5515C83.6599 32.1793 84.1199 31.0441 85.0397 30.1459ZM95.2037 38.5475L97.0235 38.1545C97.0901 38.7907 97.3634 39.3147 97.8433 39.7263C98.3233 40.1504 98.9232 40.3625 99.6431 40.3625C101.603 40.3625 102.583 39.3895 102.583 37.4435V36.1524C102.343 36.589 101.963 36.9445 101.443 37.2189C100.936 37.4934 100.336 37.6306 99.6431 37.6306C98.3633 37.6306 97.3034 37.2252 96.4635 36.4143C95.637 35.591 95.2237 34.5432 95.2237 33.2708C95.2237 32.0358 95.637 31.0004 96.4635 30.1646C97.2901 29.3164 98.3499 28.8922 99.6431 28.8922C101.11 28.8922 102.096 29.3663 102.603 30.3143V29.0606H104.463V37.3874C104.463 37.9861 104.376 38.5412 104.203 39.0527C104.043 39.5766 103.783 40.0569 103.423 40.4935C103.063 40.9301 102.556 41.2731 101.903 41.5226C101.263 41.7721 100.51 41.8969 99.6431 41.8969C98.4566 41.8969 97.4501 41.5788 96.6235 40.9426C95.797 40.3189 95.3237 39.5205 95.2037 38.5475ZM99.9231 36.1524C100.736 36.1524 101.396 35.8904 101.903 35.3665C102.409 34.8301 102.663 34.1315 102.663 33.2708C102.663 32.41 102.409 31.7177 101.903 31.1938C101.396 30.6574 100.736 30.3892 99.9231 30.3892C99.0965 30.3892 98.4233 30.6511 97.9033 31.1751C97.3967 31.699 97.1434 32.3976 97.1434 33.2708C97.1434 34.1565 97.3901 34.8613 97.8833 35.3852C98.3899 35.8967 99.0698 36.1524 99.9231 36.1524ZM109.344 38.061H107.464V24.5137H109.344V38.061ZM113.761 32.6346H119.021C118.994 31.961 118.754 31.4121 118.301 30.988C117.847 30.5513 117.208 30.333 116.381 30.333C115.634 30.333 115.021 30.5638 114.541 31.0254C114.061 31.4745 113.801 32.0109 113.761 32.6346ZM119.301 34.9735L120.92 35.4975C120.64 36.3333 120.121 37.0194 119.361 37.5558C118.601 38.0797 117.681 38.3416 116.601 38.3416C115.255 38.3416 114.108 37.9113 113.161 37.0505C112.228 36.1773 111.762 35.0047 111.762 33.5327C111.762 32.1606 112.215 31.0254 113.121 30.1272C114.028 29.2291 115.108 28.78 116.361 28.78C117.814 28.78 118.947 29.2103 119.761 30.0711C120.574 30.9193 120.98 32.0608 120.98 33.4953C120.98 33.7199 120.967 33.907 120.94 34.0567H113.701C113.715 34.855 113.995 35.5099 114.541 36.0214C115.101 36.5329 115.788 36.7886 116.601 36.7886C117.974 36.7886 118.874 36.1836 119.301 34.9735ZM130.539 30.988H133.379C134.219 30.988 134.885 30.7884 135.378 30.3892C135.872 29.9775 136.118 29.4286 136.118 28.7425C136.118 28.044 135.872 27.4889 135.378 27.0772C134.885 26.6531 134.219 26.441 133.379 26.441H130.539V30.988ZM133.739 32.6346H130.539V38.061H128.579V24.7944H133.739C135.032 24.7944 136.085 25.1686 136.898 25.9171C137.711 26.6655 138.118 27.6011 138.118 28.7238C138.118 29.859 137.711 30.7946 136.898 31.5306C136.085 32.2666 135.032 32.6346 133.739 32.6346ZM141.996 38.061H140.116V24.5137H141.996V38.061ZM144.593 35.6472C144.593 34.8737 144.86 34.2563 145.393 33.7947C145.927 33.3207 146.633 33.0275 147.513 32.9153L150.113 32.5597C150.606 32.4974 150.853 32.2728 150.853 31.8861C150.853 31.4121 150.679 31.0254 150.333 30.726C149.986 30.4266 149.466 30.2769 148.773 30.2769C148.133 30.2769 147.626 30.4453 147.253 30.7821C146.88 31.1065 146.66 31.5431 146.593 32.0919L144.793 31.699C144.887 30.8383 145.307 30.1397 146.053 29.6033C146.8 29.0544 147.693 28.78 148.733 28.78C150.093 28.78 151.099 29.0918 151.752 29.7156C152.406 30.3268 152.732 31.1127 152.732 32.0732V36.5828C152.732 37.1192 152.772 37.6119 152.852 38.061H151.013C150.946 37.6867 150.913 37.2813 150.913 36.8447C150.646 37.2439 150.253 37.5932 149.733 37.8926C149.226 38.192 148.586 38.3416 147.813 38.3416C146.866 38.3416 146.093 38.0797 145.493 37.5558C144.893 37.0194 144.593 36.3832 144.593 35.6472ZM148.073 36.8634C148.913 36.8634 149.586 36.6514 150.093 36.2272C150.599 35.8031 150.853 35.1295 150.853 34.2064V33.7947L147.913 34.2064C147.486 34.2687 147.146 34.4122 146.893 34.6367C146.64 34.8613 146.513 35.1669 146.513 35.5536C146.513 35.9029 146.653 36.2085 146.933 36.4705C147.226 36.7324 147.606 36.8634 148.073 36.8634ZM157.866 41.822H155.806L158.206 37.0693L154.066 29.0606H156.226L159.226 35.2729L162.105 29.0606H164.125L157.866 41.822Z" fill="white"/>
<path opacity="0.6" d="M62.5853 17.5671V14.9368H59.8885V15.7921H61.595C61.534 16.1486 61.1455 16.7758 60.1475 16.7758C59.241 16.7758 58.4411 16.1842 58.4411 15.0437C58.4411 13.8461 59.3248 13.3258 60.1399 13.3258C61.016 13.3258 61.4654 13.8461 61.6026 14.2952L62.6081 13.9602C62.3415 13.1832 61.5569 12.4062 60.1399 12.4062C58.6773 12.4062 57.3746 13.4113 57.3746 15.0437C57.3746 16.6761 58.6163 17.674 60.0714 17.674C60.8865 17.674 61.4197 17.3319 61.6635 16.9897L61.7321 17.5671H62.5853ZM68.4569 17.5671V16.6404H66.1258V15.4714H68.236V14.5946H66.1258V13.4398H68.4569V12.5131H65.0745V17.5671H68.4569ZM75.0027 13.4469V12.5131H70.5309V13.4469H72.2373V17.5671H73.2962V13.4469H75.0027ZM81.5482 17.5671V12.5131H80.4816V17.5671H81.5482ZM88.1854 13.4469V12.5131H83.7137V13.4469H85.4201V17.5671H86.479V13.4469H88.1854ZM94.4337 15.0365C94.4337 13.896 95.287 13.3543 96.1173 13.3543C96.9553 13.3543 97.8085 13.896 97.8085 15.0365C97.8085 16.1771 96.9553 16.7188 96.1173 16.7188C95.287 16.7188 94.4337 16.1771 94.4337 15.0365ZM93.3444 15.0437C93.3444 16.6689 94.6547 17.674 96.1173 17.674C97.5876 17.674 98.8979 16.6689 98.8979 15.0437C98.8979 13.4113 97.5876 12.4062 96.1173 12.4062C94.6547 12.4062 93.3444 13.4113 93.3444 15.0437ZM105.847 17.5671V12.5131H104.796V15.8563L102.548 12.5131H101.238V17.5671H102.289V13.9816L104.742 17.5671H105.847Z" fill="white"/>
<path d="M26.6613 37.6962C26.0973 38.0373 25.4198 38.1404 24.7843 37.9999L35.9515 27.5508L39.5707 30.9373L26.6613 37.6962Z" fill="white"/>
<path d="M23.3983 37.1507C23.087 36.7633 22.9077 36.2876 22.9077 35.7843V17.1713C22.9077 16.668 23.087 16.1923 23.3983 15.8049L34.8046 26.4778L23.3983 37.1507Z" fill="white"/>
<path d="M44.2944 28.4642L41.0416 30.1672L37.0984 26.4775L41.0419 22.7876L44.295 24.4907C45.0743 24.8993 45.5396 25.642 45.5396 26.4775C45.5396 27.313 45.0743 28.0556 44.2944 28.4642Z" fill="white"/>
<path d="M35.9515 25.4049L24.7851 14.9564C24.9681 14.916 25.1545 14.8944 25.3407 14.8944C25.8012 14.8944 26.26 15.0169 26.6614 15.2595L39.5709 22.0183L35.9515 25.4049Z" fill="white"/>
<defs>
<linearGradient id="paint0_linear_512_5127" x1="0" y1="0.915833" x2="163.295" y2="84.4768" gradientUnits="userSpaceOnUse">
<stop stop-color="#6DDCFF"/>
<stop offset="1" stop-color="#7F60F9"/>
</linearGradient>
</defs>
</svg>
