<svg width="73" height="73" viewBox="0 0 73 73" fill="none" xmlns="http://www.w3.org/2000/svg">
<circle cx="36.5" cy="36.5" r="36" transform="rotate(-90 36.5 36.5)" stroke="#222222"/>
<path fill-rule="evenodd" clip-rule="evenodd" d="M32.7183 33.3284C32.9058 33.1409 33.1601 33.0356 33.4253 33.0356C33.6905 33.0356 33.9448 33.1409 34.1323 33.3284L37.4253 36.6214L40.7183 33.3284C40.9069 33.1462 41.1595 33.0454 41.4217 33.0477C41.6839 33.05 41.9347 33.1551 42.1201 33.3406C42.3055 33.526 42.4107 33.7768 42.413 34.039C42.4152 34.3012 42.3145 34.5538 42.1323 34.7424L38.1323 38.7424C37.9448 38.9298 37.6905 39.0352 37.4253 39.0352C37.1601 39.0352 36.9058 38.9298 36.7183 38.7424L32.7183 34.7424C32.5308 34.5548 32.4255 34.3005 32.4255 34.0354C32.4255 33.7702 32.5308 33.5159 32.7183 33.3284Z" fill="#222222"/>
</svg>
