<svg width="32" height="32" viewBox="0 0 32 32" fill="none" xmlns="http://www.w3.org/2000/svg">
<circle cx="16" cy="16" r="15.5" transform="matrix(0 1 1 0 0 0)" stroke="#222222"/>
<path fill-rule="evenodd" clip-rule="evenodd" d="M17.2182 18.3828C17.3026 18.3078 17.35 18.2061 17.35 18.1C17.35 17.994 17.3026 17.8922 17.2182 17.8172L15.7364 16.5L17.2182 15.1828C17.3002 15.1074 17.3455 15.0063 17.3445 14.9015C17.3435 14.7966 17.2962 14.6963 17.2127 14.6221C17.1293 14.5479 17.0164 14.5059 16.8984 14.505C16.7804 14.504 16.6668 14.5444 16.5819 14.6172L14.7819 16.2172C14.6975 16.2922 14.6501 16.394 14.6501 16.5C14.6501 16.6061 14.6975 16.7078 14.7819 16.7828L16.5819 18.3828C16.6663 18.4578 16.7807 18.4999 16.9001 18.4999C17.0194 18.4999 17.1338 18.4578 17.2182 18.3828Z" fill="#222222"/>
</svg>
