<svg width="65" height="64" viewBox="0 0 65 64" fill="none" xmlns="http://www.w3.org/2000/svg">
<path d="M24.5153 49.0833H40.4813M32.5 1.25V4.66667M54.2437 10.2563L51.8281 12.6719M63.25 32H59.8333M5.16667 32H1.75M13.1719 12.6719L10.7563 10.2563M20.4187 44.0813C18.03 41.692 16.4034 38.648 15.7446 35.3343C15.0858 32.0206 15.4244 28.5859 16.7175 25.4646C18.0106 22.3433 20.2002 19.6755 23.0095 17.7986C25.8187 15.9217 29.1214 14.9199 32.5 14.9199C35.8786 14.9199 39.1813 15.9217 41.9905 17.7986C44.7998 19.6755 46.9894 22.3433 48.2825 25.4646C49.5756 28.5859 49.9142 32.0206 49.2554 35.3343C48.5966 38.648 46.97 41.692 44.5813 44.0813L42.709 45.9503C41.6386 47.0209 40.7895 48.2918 40.2103 49.6906C39.6311 51.0893 39.3331 52.5885 39.3333 54.1024V55.9167C39.3333 57.729 38.6134 59.4671 37.3319 60.7486C36.0504 62.0301 34.3123 62.75 32.5 62.75C30.6877 62.75 28.9496 62.0301 27.6681 60.7486C26.3866 59.4671 25.6667 57.729 25.6667 55.9167V54.1024C25.6667 51.0445 24.4503 48.1096 22.291 45.9503L20.4187 44.0813Z" stroke="#FFB700" stroke-width="2" stroke-linecap="round" stroke-linejoin="round"/>
</svg>
