<svg width="20" height="22" viewBox="0 0 20 22" fill="none" xmlns="http://www.w3.org/2000/svg">
<g id="Frame 15">
<circle id="Ellipse 24" cx="10" cy="9.5" r="9.5" fill="#973EFF"/>
<path id="Star 1" d="M9.04894 4.92705C9.3483 4.00574 10.6517 4.00574 10.9511 4.92705L11.4593 6.49139C11.5932 6.90341 11.9772 7.18237 12.4104 7.18237H14.0552C15.024 7.18237 15.4267 8.42199 14.643 8.99139L13.3123 9.9582C12.9618 10.2128 12.8152 10.6642 12.949 11.0762L13.4573 12.6406C13.7567 13.5619 12.7022 14.328 11.9185 13.7586L10.5878 12.7918C10.2373 12.5372 9.7627 12.5372 9.41221 12.7918L8.08151 13.7586C7.2978 14.328 6.24331 13.5619 6.54267 12.6406L7.05095 11.0762C7.18483 10.6642 7.03817 10.2128 6.68768 9.9582L5.35698 8.99139C4.57326 8.42199 4.97604 7.18237 5.94476 7.18237H7.5896C8.02283 7.18237 8.40678 6.90341 8.54066 6.49139L9.04894 4.92705Z" fill="#FFC02B"/>
</g>
</svg>
