<svg width="73" height="73" viewBox="0 0 73 73" fill="none" xmlns="http://www.w3.org/2000/svg">
<circle cx="36.5" cy="36.5" r="36" transform="rotate(90 36.5 36.5)" stroke="#222222"/>
<path fill-rule="evenodd" clip-rule="evenodd" d="M41.1323 39.7419C40.9448 39.9294 40.6905 40.0347 40.4253 40.0347C40.1601 40.0347 39.9058 39.9294 39.7183 39.7419L36.4253 36.4489L33.1323 39.7419C32.9437 39.9241 32.6911 40.0249 32.4289 40.0226C32.1667 40.0203 31.9159 39.9152 31.7305 39.7298C31.5451 39.5444 31.4399 39.2935 31.4376 39.0313C31.4353 38.7691 31.5361 38.5165 31.7183 38.3279L35.7183 34.3279C35.9058 34.1405 36.1601 34.0352 36.4253 34.0352C36.6905 34.0352 36.9448 34.1405 37.1323 34.3279L41.1323 38.3279C41.3198 38.5155 41.4251 38.7698 41.4251 39.0349C41.4251 39.3001 41.3198 39.5544 41.1323 39.7419Z" fill="#222222"/>
</svg>
