<svg width="64" height="64" viewBox="0 0 64 64" fill="none" xmlns="http://www.w3.org/2000/svg">
<path d="M1.43792 28.5833H8.08333C9.89565 28.5833 11.6337 29.3033 12.9152 30.5848C14.1967 31.8663 14.9167 33.6044 14.9167 35.4167V38.8333C14.9167 40.6456 15.6366 42.3837 16.9181 43.6652C18.1996 44.9467 19.9377 45.6667 21.75 45.6667C23.5623 45.6667 25.3004 46.3866 26.5819 47.6681C27.8634 48.9496 28.5833 50.6877 28.5833 52.5V62.5621M18.3333 4.44458V9.79167C18.3333 12.0571 19.2333 14.2297 20.8351 15.8315C22.437 17.4334 24.6096 18.3333 26.875 18.3333H28.5833C30.3956 18.3333 32.1337 19.0533 33.4152 20.3348C34.6967 21.6163 35.4167 23.3544 35.4167 25.1667C35.4167 26.979 36.1366 28.7171 37.4181 29.9986C38.6996 31.2801 40.4377 32 42.25 32C44.0623 32 45.8004 31.2801 47.0819 29.9986C48.3634 28.7171 49.0833 26.979 49.0833 25.1667C49.0833 23.3544 49.8033 21.6163 51.0848 20.3348C52.3663 19.0533 54.1044 18.3333 55.9167 18.3333H59.552M42.25 61.0007V52.5C42.25 50.6877 42.9699 48.9496 44.2514 47.6681C45.5329 46.3866 47.271 45.6667 49.0833 45.6667H59.552M62.75 32C62.75 36.0381 61.9546 40.0368 60.4093 43.7675C58.864 47.4983 56.5989 50.8881 53.7435 53.7435C50.8881 56.5989 47.4983 58.864 43.7675 60.4093C40.0368 61.9546 36.0381 62.75 32 62.75C27.9619 62.75 23.9632 61.9546 20.2325 60.4093C16.5017 58.864 13.1119 56.5989 10.2565 53.7435C7.40106 50.8881 5.13604 47.4983 3.5907 43.7675C2.04537 40.0368 1.25 36.0381 1.25 32C1.25 23.8446 4.48972 16.0232 10.2565 10.2565C16.0232 4.48972 23.8446 1.25 32 1.25C40.1554 1.25 47.9768 4.48972 53.7435 10.2565C59.5103 16.0232 62.75 23.8446 62.75 32Z" stroke="#FFB700" stroke-width="2" stroke-linecap="round" stroke-linejoin="round"/>
</svg>
